<?xml version="1.0" encoding="utf-8"?>
<!-- Generator: Adobe Illustrator 24.1.0, SVG Export Plug-In . SVG Version: 6.00 Build 0)  -->
<svg version="1.1" id="Layer_2_1_" xmlns="http://www.w3.org/2000/svg" xmlns:xlink="http://www.w3.org/1999/xlink" x="0px" y="0px"
	 viewBox="0 0 899 330" style="enable-background:new 0 0 899 330;" xml:space="preserve">
<style type="text/css">
	.st0{fill:#D5333E;}
</style>
<path id="circle_1_" class="st0" d="M450.5,14.5c-82.7,0-150,67.3-150,150s67.3,150,150,150s150-67.3,150-150S533.2,14.5,450.5,14.5
	z M450.5,290.5c-69.6,0-126-56.4-126-126s56.4-126,126-126s126,56.4,126,126S520.1,290.5,450.5,290.5z"/>
<g id="Layer_3">
</g>
<g id="Layer_4">
	<g id="circle">
		<path class="st0" d="M450.1,14.3c-82.7,0-150,67.3-150,150s67.3,150,150,150s150-67.3,150-150S532.8,14.3,450.1,14.3z
			 M450.1,290.3c-69.6,0-126-56.4-126-126s56.4-126,126-126s126,56.4,126,126C576,233.9,519.6,290.2,450.1,290.3z"/>
	</g>
	<g>
		<path class="st0" d="M403.3,146.2c-2.9-3.4-7.1-5.4-12.5-5.4c-11,0-19.1,8.9-19.1,21.2s8.1,21.2,18.6,21.2
			c5.9,0,10.6-2.6,13.6-7.1l12.1,9c-5.5,7.8-14.8,11.4-23.8,11.4c-20.6,0-35.5-13.5-35.5-34.6s15-34.6,35.5-34.6
			c7.3,0,16.7,2.5,22.2,9.7L403.3,146.2z"/>
		<path class="st0" d="M424,129.1h24.6c11.5,0,24.1,2.4,24.1,16.7c0,7.3-4.6,12.4-11.3,14.5v0.2c8.7,1.1,14.4,7.5,14.4,16.1
			c0,13.8-13,18.3-24.7,18.3h-27v-65.8H424z M438.5,155.4H449c4.5,0,9.1-1.9,9.1-7.2c0-5.5-5.2-6.9-9.8-6.9h-9.9L438.5,155.4
			L438.5,155.4z M438.5,182.7h13c4.6,0,9.7-2,9.7-7.7c0-6.2-7-7.3-11.7-7.3h-11V182.7z"/>
		<path class="st0" d="M505.9,129.1h12l28.7,65.9h-16.4l-5.7-14H499l-5.5,14h-16L505.9,129.1z M511.5,148.3l-8,20.5h16.1
			L511.5,148.3z"/>
	</g>
</g>
</svg>
